<?xml version="1.0" standalone="no"?>
<!DOCTYPE svg PUBLIC "-//W3C//DTD SVG 1.1//EN" "http://www.w3.org/Graphics/SVG/1.1/DTD/svg11.dtd" >
<svg xmlns="http://www.w3.org/2000/svg">
<metadata>Generated by IcoMoon</metadata>
<defs>
<font id="icomoon" horiz-adv-x="1024">
<font-face units-per-em="1024" ascent="960" descent="-64" />
<missing-glyph horiz-adv-x="1024" />
<glyph unicode="&#x20;" horiz-adv-x="512" d="" />
<glyph unicode="&#xe900;" glyph-name="1" d="M511.98 960c-207.136 0-393.907-124.805-473.037-315.94-79.131-191.426-35.492-411.652 111.132-557.987 146.624-146.33 366.56-190.259 557.988-111.132 191.135 79.132 315.938 265.904 315.938 473.039-0.29 282.775-229.245 511.73-512.020 512.020zM511.98 29.053c-169.316 0-322.34 102.116-386.925 258.628-64.876 156.516-29.092 336.596 90.767 456.455s299.94 155.642 456.457 90.767c156.513-64.876 258.628-217.609 258.628-386.925-0.29-231.284-187.648-418.636-418.928-418.926zM558.525 467.189v260.083c0 25.601-20.946 46.547-46.548 46.547s-46.547-20.946-46.547-46.547v-279.284c0-12.219 4.945-24.146 13.673-32.874l139.642-139.641c18.33-17.749 47.417-17.454 65.166 0.58 18.039 18.039 18.33 47.132 0.58 65.166l-125.967 125.969z" />
<glyph unicode="&#xe901;" glyph-name="2" d="M750.933 386.56h-150.187v-450.56h-197.973v450.56h-163.84v184.32h163.84v136.533c0 163.84 95.573 252.587 238.933 252.587 68.267 0 143.36-13.653 143.36-13.653v-157.013h-75.093c-81.92 0-109.227-47.787-109.227-102.4v-122.88h177.493l-27.307-177.493z" />
<glyph unicode="&#xe902;" glyph-name="3" d="M914.773 652.8c0-6.827 0-20.48 0-27.307 0-279.893-211.627-593.92-593.92-593.92-122.88 0-232.107 34.133-320.853 95.573 13.653 0 34.133-6.827 47.787-6.827 95.573 0 191.147 34.133 259.413 88.747-88.747 0-170.667 61.44-197.973 143.36 13.653 0 27.307-6.827 40.96-6.827 20.48 0 40.96 6.827 54.613 6.827-95.573 27.307-163.84 109.227-163.84 211.627v0c27.307-13.653 61.44-20.48 95.573-27.307-61.44 40.96-95.573 102.4-95.573 177.493 0 40.96 13.653 75.093 27.307 102.4 102.4-122.88 259.413-211.627 436.907-218.453-6.827 20.48-6.827 34.133-6.827 47.787 0 116.053 95.573 211.627 211.627 211.627 61.44 0 116.053-27.307 157.013-68.267 47.787 6.827 88.747 27.307 129.707 54.613-13.653-47.787-47.787-88.747-88.747-116.053 40.96 6.827 81.92 13.653 122.88 34.133-34.133-47.787-75.093-81.92-116.053-109.227z" />
<glyph unicode="&#xe903;" glyph-name="4" d="M226.687-64h-211.053v687.878h211.053v-687.878zM125.069 709.863c-70.351 0-125.069 62.534-125.069 125.069 0 70.351 54.718 125.069 125.069 125.069s125.069-54.718 125.069-125.069c-7.817-62.534-62.534-125.069-125.069-125.069zM1024-64h-211.053v336.122c0 78.168 0 179.786-109.435 179.786s-125.069-85.985-125.069-171.969v-336.122h-218.87v680.061h203.237v-93.802c31.267 54.718 101.618 109.435 203.237 109.435 218.87 0 257.954-140.702 257.954-328.305v-375.206z" />
<glyph unicode="&#xe904;" glyph-name="5" d="M970.477 261.131l-103.041 84.415c-67.218 54.967-171.24 49.815-232.572-11.533l-4.166-4.171c-10.305-10.305-26.99-10.305-37.047 0l-198.961 199.009c-10.058 10.061-10.304 26.256-0.49 36.562 0.245 0.246 0.245 0.491 0.49 0.491l-0.49-0.491c0.245 0.246 0.245 0.246 0.49 0.491 60.842 61.592 66.729 166.127 13.493 233.608l-83.656 105.762c-53.972 67.972-147.197 73.371-208.529 12.024l-15.455-15.46c-108.435-108.706-134.195-304.77-52.5-435.071 0 0 48.084-111.407 210.001-273.361s273.295-210.049 273.295-210.049c131.497-79.506 326.284-55.954 434.968 52.758l14.719 14.719c61.084 61.106 56.428 155.33-10.547 210.297zM906.935 124.696l-14.719-14.724c-74.58-74.596-216.382-91.772-306.661-37.053l-6.133 3.681-6.624 2.948c-8.095 3.433-28.456 14.476-59.124 35.085-54.463 36.568-115.795 86.868-181.788 152.878s-116.285 127.111-152.84 181.587c-20.608 30.674-31.648 51.040-35.082 59.139l-3.189 7.361-4.17 6.871c-54.954 87.603-37.045 230.173 38.025 305.507l15.456 15.459c16.928 16.932 37.29 15.95 52.255-2.945l83.657-105.761c20.607-26.011 17.909-71.408-5.888-95.21-50.538-51.286-50.292-133.735 0.49-184.531l198.961-199.010c51.027-51.038 133.949-51.038 185.225 0l4.166 4.171c23.309 23.315 66.732 25.277 92.246 4.419l103.036-84.415c19.138-15.705 20.119-38.034 2.7-55.458z" />
<glyph unicode="&#xe905;" glyph-name="6" d="M894.606 846.222h-765.215c-71.652 0-129.392-68.987-129.392-154.597v-487.252c0-85.606 57.739-154.596 129.392-154.596h765.215c71.657 0 129.394 68.989 129.394 154.596v487.252c0 85.61-57.737 154.597-129.394 154.597zM874.433 746.482l-362.433-234.574-362.435 234.574h724.868zM894.606 149.515h-765.215c-25.044 0-45.913 24.94-45.913 54.858v477.277l402.782-272.808c7.652-6.649 16.696-10.805 25.739-10.805s18.087 3.325 25.739 10.805l402.782 272.808v-477.277c0-30.754-20.867-54.858-45.915-54.858z" />
<glyph unicode="&#xe906;" glyph-name="7" d="M512 459.378c0 0-5.689 0 0 0-5.689 0-11.378 0-11.378 0-142.222 5.689-250.311 113.778-250.311 250.311s113.778 250.311 256 250.311 256-113.778 256-250.311c-5.689-136.533-113.778-244.622-250.311-250.311 0 0 0 0 0 0zM506.311 886.044c-96.711 0-182.044-79.644-182.044-176.356s73.956-176.356 170.667-176.356c0 0 11.378 0 17.067 0 96.711 5.689 170.667 79.644 170.667 176.356s-79.644 176.356-176.356 176.356zM512-64c-96.711 0-193.422 22.756-267.378 73.956-62.578 39.822-102.4 102.4-102.4 170.667s39.822 125.156 102.4 170.667c147.911 96.711 381.156 96.711 529.067 0 68.267-45.511 102.4-102.4 102.4-170.667s-39.822-125.156-102.4-170.667c-68.267-51.2-164.978-73.956-261.689-73.956zM290.133 288.711c-45.511-28.444-73.956-68.267-73.956-113.778 0-39.822 28.444-79.644 73.956-108.089 119.467-79.644 324.267-79.644 449.422 0 45.511 28.444 73.956 68.267 73.956 113.778 0 39.822-28.444 79.644-73.956 108.089-125.156 79.644-329.956 79.644-449.422 0z" />
<glyph unicode="&#xe907;" glyph-name="8" d="M983.040 821.76c-10.24 5.12-20.48 10.24-30.72 5.12l-296.96-71.68-291.84 148.48c0 0 0 0-5.12 0-5.12 5.12-5.12 5.12-10.24 5.12 0 0-5.12 0-5.12 0s-5.12 0-5.12 0l-307.2-76.8c-20.48-5.12-30.72-20.48-30.72-35.84v-691.2c0-10.24 5.12-20.48 15.36-30.72 5.12-5.12 15.36-10.24 25.6-10.24 5.12 0 5.12 0 10.24 0l291.84 76.8 296.96-148.48c0 0 0 0 0 0 5.12 0 10.24-5.12 15.36-5.12 0 0 0 0 0 0s0 0 0 0 0 0 0 0c5.12 0 5.12 0 10.24 0l307.2 76.8c15.36 5.12 30.72 20.48 30.72 35.84v696.32c-5.12 10.24-10.24 20.48-20.48 25.6zM76.8 765.44l230.4 56.32v-614.4l-230.4-56.32v614.4zM614.4 89.6l-230.4 117.76v599.040l230.4-112.64v-604.16zM921.6 130.56l-230.4-56.32v614.4l230.4 56.32v-614.4z" />
<glyph unicode="&#xe908;" glyph-name="9" d="M514.626-64c-283.569 0-514.626 231.056-514.626 509.374s231.056 514.626 514.626 514.626 514.626-231.056 514.626-514.626-236.308-509.374-514.626-509.374zM514.626 881.231c-236.308 0-435.856-194.297-435.856-435.856s194.297-430.605 435.856-430.605 430.605 194.297 430.605 430.605-194.297 435.856-430.605 435.856zM514.626 93.538c-199.549 0-357.087 157.538-357.087 351.836 0 199.549 157.538 357.087 357.087 357.087 194.297 0 357.087-157.538 357.087-357.087-5.251-194.297-162.79-351.836-357.087-351.836zM514.626 723.692c-152.287 0-278.318-126.031-278.318-278.318s126.031-278.318 278.318-278.318c152.287 0 278.318 126.031 278.318 278.318-5.251 152.287-131.282 278.318-278.318 278.318z" />
<glyph unicode="&#xe909;" glyph-name="10" d="M896 883.2h-117.76v35.84c0 20.48-15.36 40.96-40.96 40.96s-40.96-15.36-40.96-40.96v-40.96h-373.76v40.96c0 25.6-20.48 40.96-40.96 40.96s-35.84-15.36-35.84-40.96v-40.96h-117.76c-40.96 5.12-76.8-30.72-76.8-71.68v-768c0-40.96 35.84-76.8 76.8-76.8h768c40.96 0 76.8 35.84 76.8 76.8v768c0 40.96-35.84 76.8-76.8 76.8zM245.76 806.4v-40.96c0-20.48 15.36-40.96 40.96-40.96s40.96 15.36 40.96 40.96v40.96h384v-40.96c0-20.48 15.36-40.96 40.96-40.96s40.96 15.36 40.96 40.96v40.96h117.76v-153.6h-768v153.6h102.4zM128 38.4v537.6h768v-537.6h-768z" />
<glyph unicode="&#xe90a;" glyph-name="11" d="M516.452 301.078c-13.357 8.904-31.165 13.357-44.522 22.261 66.783 44.522 111.304 120.209 111.304 209.252 0 138.017-111.304 249.322-249.322 249.322s-249.322-111.304-249.322-249.322c0-89.043 44.522-164.73 111.304-209.252-17.809-4.452-31.165-13.357-44.522-22.261-57.878-31.165-106.852-71.235-142.47-124.661-8.904-13.357-8.904-35.617 8.904-44.522 13.357-8.904 35.617-8.904 44.522 8.904 31.165 44.522 71.235 80.139 120.209 102.4 93.496 48.974 213.704 48.974 307.2 0 48.974-26.713 89.043-62.33 120.209-102.4 4.452-8.904 17.809-13.357 26.713-13.357 4.452 0 13.357 0 17.809 4.452 13.357 8.904 17.809 31.165 8.904 44.522-40.070 53.426-89.043 97.948-146.922 124.661zM151.374 532.591c0 102.4 84.591 182.539 182.539 182.539s182.539-84.591 182.539-182.539-80.139-186.991-182.539-186.991-182.539 84.591-182.539 186.991zM1001.739 176.417c-35.617 53.426-84.591 97.948-142.47 124.661-13.357 8.904-31.165 13.357-48.974 22.261 17.809 13.357 35.617 26.713 53.426 44.522 22.261 26.713 40.070 57.878 48.974 93.496s13.357 71.235 8.904 106.852c-4.452 35.617-17.809 71.235-35.617 97.948-17.809 31.165-44.522 57.878-75.687 75.687s-62.33 31.165-97.948 40.070c-35.617 4.452-71.235 4.452-106.852-4.452-17.809-4.452-26.713-22.261-22.261-40.070s22.261-26.713 40.070-22.261c26.713 8.904 53.426 8.904 75.687 4.452 26.713-4.452 48.974-13.357 71.235-26.713s40.070-31.165 53.426-53.426c13.357-22.261 22.261-48.974 26.713-71.235 4.452-26.713 0-53.426-4.452-75.687-8.904-26.713-22.261-48.974-35.617-66.783-17.809-17.809-40.070-35.617-62.33-44.522s-48.974-17.809-75.687-17.809c0 0 0 0 0 0-13.357 0-22.261-8.904-26.713-17.809 0 0 0 0 0-4.452 0 0 0 0 0 0 0-4.452 0-8.904 0-8.904s0 0 0 0 0 0 0 0c0-17.809 13.357-31.165 35.617-31.165 0 0 0 0 0 0 53.426 0 106.852-13.357 155.826-35.617 48.974-26.713 89.043-62.33 120.209-102.4 4.452-8.904 17.809-13.357 26.713-13.357 4.452 0 13.357 0 17.809 4.452 8.904-13.357 8.904 8.904 0 22.261z" />
<glyph unicode="&#xe90b;" glyph-name="12" d="M494.933 192c-17.067 0-34.133 8.533-42.667 17.067l-426.667 426.667c-25.6 25.6-25.6 68.267 0 93.867s68.267 25.6 93.867 0l384-384 384 384c25.6 25.6 68.267 25.6 93.867 0s25.6-68.267 0-93.867l-426.667-426.667c-34.133-8.533-51.2-17.067-59.733-17.067z" />
<glyph unicode="&#xe90c;" glyph-name="13" d="M512-64c281.919 0 512 230.101 512 512 0 281.92-230.101 512-512 512-282.68 0-512-231.22-512-512 0-281.919 230.1-512 512-512zM60 448c0 107.42 37.68 206.18 100.5 283.82 34.58 0.3 43.92-3.92 46.42-6.14 0.32-1.96 1.24-14.8-19.54-48.54-49.040-79.6-63.72-129.341-49.14-166.32 19.7-49.959 81.54-50.020 115.12-65.782 20.32-9.54 122.84-56.758 134.68-74.359v-50.422c0-37.597 35.499-57.897 64.019-74.199 11.559-6.599 35.602-20.357 37.282-27.079 0-119.681 11.518-185.561 26.378-222.9-1.241 0-2.458-0.041-3.678-0.041-249.281-0.041-452.041 202.719-452.041 451.961zM590.041 28.439c0.18-6.038-6.119-18.317-11.563-23.818-7.66 10.621-29.159 54.661-29.159 214.34 0 40.559-37.417 61.96-67.478 79.159-10.58 6.062-30.2 17.162-34.001 23.282v49.48c0 8.081-1.298 15.299-3.899 21.778 49.861 4.579 74.138 22.143 92.557 35.459 12.943 9.363 19.423 14.041 33.46 14.041 0.401 0 0.602-0.020 0.602-0.020 3.158-1.54 9.859-12.759 13.861-19.46 34.017-56.84 67.199-77.16 132.26-91.398 8.72-1.901 21.701-4.76 25.539-7.32 0.139-0.623 0.299-1.802 0.299-3.74 0-61.903-47.657-106.762-89.698-146.321-33.722-31.719-62.82-59.138-62.82-93.901 0.020-4.837-0.041-48.919 0.041-51.56zM964.002 448c0-201.441-132.481-372.519-314.88-430.719 0.68 4.338 0.799 8.618 0.696 12.759-0.037 4.059 0 49.66 0 49.959 0 0 0.463 4.383 9.56 15.38 8.462 10.24 21.16 22.2 34.603 34.841 45.818 43.119 108.581 102.179 108.581 190.022 0 30.077-15.163 46.080-27.902 54.198-13.3 8.499-28.762 11.878-45.122 15.458-48.599 10.641-68.157 21.062-93.598 63.603-12.28 20.537-29.123 48.681-65.962 48.681-33.46 0-52.957-14.103-68.62-25.424-17.94-12.976-34.877-25.219-83.317-25.219-48.102 0-76.722 27.881-86.622 51.741-3.74 9.019-10.58 31.859 6.54 48.98 8.26 8.26 12.74 8.68 41.34-5.62 26.18-13.079 69.982-35 110.598 5.62 42.144 42.14 77.701 42.020 122.683 41.88 28.778-0.1 61.559-0.68 87.179 7.86 33.64 11.22 52.158 37.060 52.158 72.78 0 32.4-14.479 61.38-28.479 89.38-11.399 22.78-22.159 44.32-22.159 62.56 0 14.080 3.060 21.96 18.579 22.58 144.921-75.38 244.142-226.96 244.142-401.3zM654.938 876.82c-8.417-12.44-13.697-28.88-13.697-50.12 0-32.4 14.479-61.38 28.479-89.38 11.399-22.78 22.159-44.32 22.159-62.56 0-10.54-2.519-12.98-11.141-15.86-16.478-5.5-47.059-4.84-67.998-4.78-49.443 0.16-105.501 0.34-165.302-59.46-8.258-8.26-12.739-8.68-41.339 5.62-26.18 13.080-69.98 35-110.6-5.62-23.76-23.76-33.14-57.199-26.56-91.139-29.36 11.399-69.94 16.679-74.92 29.258-2.3 5.82-5.88 31.181 44.42 112.841 18.66 30.28 41.060 74.66 20.38 110.2-10.020 17.24-26.82 26.42-45.38 31.2 79.7 70.3 184.24 112.98 298.56 112.98 49.938 0 98.001-8.16 142.938-23.18z" />
<glyph unicode="&#xe90d;" glyph-name="14" horiz-adv-x="1032" d="M1019.904 263.68l-143.36 81.92 143.36 81.92c4.096 4.096 8.192 4.096 8.192 8.192s4.096 8.192 4.096 12.288c0 4.096 0 8.192-4.096 12.288s-4.096 8.192-8.192 8.192l-139.264 81.92 139.264 81.92c4.096 0 8.192 4.096 8.192 8.192s4.096 4.096 4.096 8.192c0 4.096 0 8.192 0 8.192 0 4.096-4.096 4.096-4.096 8.192s-4.096 4.096-8.192 4.096l-491.52 282.624c-4.096 8.192-8.192 8.192-12.288 8.192s-8.192 0-12.288-4.096l-491.52-282.624c-4.096-4.096-8.192-4.096-8.192-8.192-4.096-4.096-4.096-8.192-4.096-12.288s0-8.192 4.096-12.288c0-4.096 4.096-8.192 8.192-8.192l139.264-81.92-143.36-81.92c-4.096-4.096-8.192-4.096-8.192-8.192s0-8.192 0-12.288c0-4.096 0-8.192 4.096-12.288 0-4.096 4.096-8.192 8.192-8.192l143.36-81.92-139.264-81.92c-4.096-4.096-8.192-4.096-8.192-8.192-8.192-4.096-8.192-8.192-8.192-12.288s0-8.192 4.096-12.288c4.096-4.096 4.096-8.192 8.192-8.192l491.52-282.624c4.096 0 8.192-4.096 12.288-4.096s8.192 0 12.288 4.096l491.52 282.624c4.096 4.096 8.192 4.096 8.192 8.192 4.096 4.096 4.096 8.192 4.096 12.288s0 8.192-4.096 12.288c0 4.096-4.096 8.192-8.192 8.192v0zM516.096 910.848l446.464-258.048-446.464-258.048-446.464 258.048 446.464 258.048zM200.704 521.728l303.104-176.128c4.096-4.096 8.192-4.096 12.288-4.096s8.192 0 12.288 4.096l303.104 176.128 131.072-73.728-446.464-258.048-446.464 258.048 131.072 73.728zM516.096-14.848l-446.464 258.048 131.072 77.824 303.104-176.128c4.096-4.096 8.192-4.096 12.288-4.096s8.192 0 12.288 4.096l303.104 176.128 131.072-77.824-446.464-258.048z" />
<glyph unicode="&#xe90e;" glyph-name="15" d="M1001.739 759.652h-244.87v89.043c0 48.974-40.070 89.043-89.043 89.043-22.261 0-42.296-8.904-57.878-20.035-15.583 24.487-42.296 42.296-75.687 42.296s-60.104-17.809-75.687-42.296c-15.583 11.13-35.617 20.035-57.878 20.035-33.391 0-60.104-17.809-75.687-42.296-15.583 11.13-35.617 20.035-57.878 20.035-48.974 0-89.043-40.070-89.043-89.043v-66.783h-155.826v-489.739h158.052c11.13-186.991 166.957-333.913 353.948-333.913s342.817 146.922 353.948 333.913h113.53v489.739zM667.826 893.217c24.487 0 44.522-20.035 44.522-44.522v-89.043h-89.043v89.043c0 24.487 20.035 44.522 44.522 44.522zM489.739 870.957c0 24.487 20.035 44.522 44.522 44.522s44.522-20.035 44.522-44.522v-111.304h-89.043v111.304zM356.174 848.696c0 24.487 20.035 44.522 44.522 44.522s44.522-20.035 44.522-44.522v-89.043h-89.043v89.043zM222.609 826.435c0 24.487 20.035 44.522 44.522 44.522s44.522-20.035 44.522-44.522v-66.783h-89.043v66.783zM845.913 292.174c0-171.409-140.243-311.652-311.652-311.652-164.73 0-298.296 126.887-309.426 289.391h313.878c-15.583-26.713-24.487-57.878-24.487-89.043h44.522c0 82.365 84.591 155.826 178.087 155.826h22.261v111.304c0 57.878 35.617 100.174 89.043 109.078v-264.904zM957.217 314.435h-66.783v289.391h-22.261c-91.27 0-155.826-64.557-155.826-155.826v-66.783c-53.426-4.452-104.626-28.939-140.243-66.783h-505.322v400.696h890.435v-400.696zM489.739 403.478c62.33 0 111.304 48.974 111.304 111.304s-48.974 111.304-111.304 111.304-111.304-48.974-111.304-111.304 48.974-111.304 111.304-111.304zM489.739 581.565c37.843 0 66.783-28.939 66.783-66.783s-28.939-66.783-66.783-66.783-66.783 28.939-66.783 66.783 28.939 66.783 66.783 66.783zM155.826 626.087h133.565v-44.522h-133.565v44.522z" />
<glyph unicode="&#xe90f;" glyph-name="16" d="M934.957 960h-845.913c-48.974 0-89.043-40.070-89.043-89.043v-578.783c0-48.974 40.070-89.043 89.043-89.043h356.174v44.522h-356.174c-24.487 0-44.522 20.035-44.522 44.522v267.13h934.957v-200.348h44.522v512c0 48.974-40.070 89.043-89.043 89.043zM979.478 603.826h-934.957v133.565h934.957v-133.565zM44.522 781.913v89.043c0 24.487 20.035 44.522 44.522 44.522h845.913c24.487 0 44.522-20.035 44.522-44.522v-89.043h-934.957zM178.087 425.739h267.13v-44.522h-267.13v44.522zM845.913 358.957c0 62.33-48.974 111.304-111.304 111.304s-111.304-48.974-111.304-111.304v-66.783h-89.043v-356.174h400.696v356.174h-89.043v66.783zM667.826 358.957c0 37.843 28.939 66.783 66.783 66.783s66.783-28.939 66.783-66.783v-66.783h-133.565v66.783zM890.435 247.652v-267.13h-311.652v267.13h311.652zM712.348 158.609h44.522v-89.043h-44.522v89.043z" />
<glyph unicode="&#xe910;" glyph-name="17" d="M489.739 514.783h222.609v-44.522h-222.609v44.522zM601.043 737.391c-62.33 0-111.304 48.974-111.304 111.304s48.974 111.304 111.304 111.304 111.304-48.974 111.304-111.304-48.974-111.304-111.304-111.304zM601.043 915.478c-37.843 0-66.783-28.939-66.783-66.783s28.939-66.783 66.783-66.783 66.783 28.939 66.783 66.783-28.939 66.783-66.783 66.783zM356.174 425.739c0-24.589-19.933-44.522-44.522-44.522s-44.522 19.933-44.522 44.522c0 24.589 19.933 44.522 44.522 44.522s44.522-19.933 44.522-44.522zM823.652-64h-200.348v111.304h-111.304v-111.304h-200.348v129.113c-69.009 24.487-126.887 73.461-162.504 138.017h-149.148v267.13h135.791c22.261 48.974 55.652 91.27 97.948 120.209l-40.070 138.017 20.035 6.678c46.748 15.583 146.922 17.809 200.348-86.817h309.426c164.73 0 300.522-135.791 300.522-300.522 0-126.887-82.365-242.643-200.348-282.713v-129.113zM667.826-19.478h111.304v117.983l15.583 4.452c109.078 31.165 184.765 131.339 184.765 244.87 0 140.243-115.757 256-256 256h-338.365l-6.678 13.357c-35.617 82.365-97.948 86.817-129.113 82.365l35.617-126.887-13.357-8.904c-44.522-28.939-80.139-71.235-100.174-122.435l-4.452-15.583h-122.435v-178.087h131.339l6.678-13.357c31.165-64.557 89.043-113.53 158.052-133.565l15.583-4.452v-115.757h111.304v111.304h200.348v-111.304z" />
<glyph unicode="&#xe911;" glyph-name="18" d="M44.522 492.522c0 233.739 189.217 422.957 422.957 422.957 169.183 0 322.783-100.174 387.339-253.774l8.904-20.035 40.070 17.809-8.904 20.035c-71.235 169.183-240.417 280.487-427.409 280.487-258.226 0-467.478-209.252-467.478-467.478s209.252-467.478 467.478-467.478h22.261v44.522h-22.261c-233.739 0-422.957 189.217-422.957 422.957zM445.217 514.783h-222.609v-44.522h267.13v267.13h-44.522zM801.391 559.304c-126.887 0-222.609-46.748-222.609-111.304v-400.696c0-64.557 95.722-111.304 222.609-111.304s222.609 46.748 222.609 111.304v400.696c0 64.557-95.722 111.304-222.609 111.304zM801.391 514.783c109.078 0 178.087-40.070 178.087-66.783s-69.009-66.783-178.087-66.783-178.087 40.070-178.087 66.783c0 26.713 69.009 66.783 178.087 66.783zM801.391-19.478c-111.304 0-178.087 37.843-178.087 66.783v64.557c40.070-26.713 104.626-42.296 178.087-42.296s138.017 15.583 178.087 42.296v-64.557c0-28.939-66.783-66.783-178.087-66.783zM801.391 114.087c-111.304 0-178.087 37.843-178.087 66.783v64.557c40.070-26.713 104.626-42.296 178.087-42.296s138.017 15.583 178.087 42.296v-64.557c0-28.939-66.783-66.783-178.087-66.783zM801.391 247.652c-111.304 0-178.087 37.843-178.087 66.783v64.557c40.070-26.713 104.626-42.296 178.087-42.296s138.017 15.583 178.087 42.296v-64.557c0-28.939-66.783-66.783-178.087-66.783z" />
<glyph unicode="&#xe912;" glyph-name="19" d="M810.665 874.666h-42.665v42.667c0 11.316-4.495 22.168-12.498 30.17s-18.852 12.497-30.167 12.497c-11.315 0-22.17-4.495-30.172-12.497s-12.498-18.854-12.498-30.17v-42.667h-341.331v42.667c0 11.316-4.495 22.168-12.497 30.17s-18.854 12.497-30.17 12.497c-11.316 0-22.168-4.495-30.17-12.497s-12.497-18.854-12.497-30.17v-42.667h-42.666c-56.559-0.068-110.782-22.565-150.775-62.559s-62.491-94.216-62.559-150.774v-511.998c0.068-56.561 22.566-110.781 62.559-150.779 39.993-39.992 94.216-62.49 150.775-62.556h597.331c56.561 0.067 110.781 22.564 150.779 62.556 39.992 39.997 62.49 94.218 62.556 150.779v511.998c-0.067 56.559-22.564 110.781-62.556 150.774-39.997 39.993-94.218 62.491-150.779 62.559zM85.334 661.334c0 33.948 13.486 66.505 37.49 90.509s56.562 37.491 90.51 37.491h597.331c33.951 0 66.509-13.486 90.511-37.491s37.489-56.562 37.489-90.509v-42.667h-853.331v42.667zM810.665 21.335h-597.331c-33.948 0-66.505 13.486-90.51 37.489s-37.49 56.561-37.49 90.511v383.998h853.331v-383.998c0-33.951-13.486-66.509-37.489-90.511s-56.561-37.489-90.511-37.489zM512 256c35.348 0 64 28.652 64 64s-28.652 64-64 64c-35.346 0-64-28.652-64-64s28.654-64 64-64zM298.666 256c35.346 0 64 28.652 64 64s-28.654 64-64 64c-35.346 0-64-28.652-64-64s28.654-64 64-64zM725.335 256c35.343 0 64 28.652 64 64s-28.657 64-64 64c-35.348 0-64-28.652-64-64s28.652-64 64-64z" />
<glyph unicode="&#xe913;" glyph-name="20" d="M514.090 960c-284.212 0-514.090-229.878-514.090-514.090 0-280.033 229.878-509.91 514.090-509.91 280.033 0 514.090 229.878 514.090 514.090-4.18 280.033-234.057 509.91-514.090 509.91zM848.457 725.943c62.694-75.233 96.131-171.363 100.31-271.673-12.539 4.18-158.824 33.437-305.11 12.539-4.18 8.359-4.18 16.718-8.359 20.898-8.359 20.898-20.898 41.796-29.257 62.694 163.004 66.873 234.057 163.004 242.416 175.543zM514.090 884.767c112.849 0 213.159-41.796 288.392-108.669-8.359-12.539-75.233-100.31-229.878-158.824-71.053 129.567-150.465 238.237-163.004 254.955 33.437 8.359 66.873 12.539 104.49 12.539zM326.008 842.971c12.539-16.718 87.771-125.388 163.004-250.776-204.8-54.335-384.522-54.335-405.42-54.335 29.257 133.747 121.208 246.596 242.416 305.11zM75.233 445.91c0 4.18 0 8.359 0 12.539 20.898 0 229.878-4.18 447.216 62.694 12.539-25.078 25.078-50.155 37.616-75.233-4.18 0-12.539-4.18-16.718-4.18-225.698-71.053-346.906-271.673-355.265-288.392-71.053 79.412-112.849 183.902-112.849 292.571zM514.090 11.233c-100.31 0-196.441 33.437-267.494 91.951 4.18 16.718 91.951 188.082 338.547 271.673 0 0 0 0 4.18 0 62.694-158.824 87.771-292.571 91.951-330.188-50.155-20.898-108.669-33.437-167.184-33.437zM756.506 86.465c-4.18 25.078-29.257 154.645-83.592 313.469 137.927 20.898 259.135-12.539 271.673-20.898-20.898-121.208-91.951-225.698-188.082-292.571z" />
<glyph unicode="&#xe914;" glyph-name="21" d="M772.655 443.345c-41.891 41.891-97.745 65.164-158.255 65.164h-55.855v251.345h23.273c18.618 0 32.582-4.655 51.2-9.309 13.964-4.655 27.927-13.964 41.891-27.927s23.273-27.927 27.927-41.891 9.309-32.582 9.309-51.2c0-27.927 18.618-46.545 46.545-46.545s46.545 18.618 46.545 46.545c0 27.927-4.655 55.855-18.618 83.782-9.309 27.927-27.927 51.2-46.545 69.818s-46.545 37.236-69.818 46.545c-32.582 18.618-60.509 23.273-88.436 23.273h-23.273v60.509c0 27.927-18.618 46.545-46.545 46.545s-46.545-18.618-46.545-46.545v-60.509h-41.891c-60.509 0-116.364-23.273-158.255-65.164-37.236-37.236-60.509-93.091-60.509-153.6s23.273-116.364 65.164-158.255c41.891-41.891 97.745-65.164 158.255-65.164h37.236v-256h-55.855c-32.582 0-65.164 13.964-88.436 37.236-27.927 27.927-41.891 60.509-41.891 93.091 0 27.927-18.618 46.545-46.545 46.545s-46.545-18.618-46.545-46.545c0-60.509 23.273-116.364 65.164-158.255s97.745-65.164 158.255-65.164h55.855v-60.509c0-27.927 18.618-46.545 46.545-46.545s46.545 18.618 46.545 46.545v60.509h60.509c60.509 0 116.364 23.273 158.255 65.164s65.164 97.745 65.164 158.255-27.927 116.364-69.818 158.255zM423.564 503.855c-32.582 0-65.164 13.964-88.436 37.236-23.273 27.927-37.236 60.509-37.236 93.091s13.964 65.164 37.236 88.436c23.273 23.273 55.855 37.236 88.436 37.236h41.891v-256h-41.891zM707.491 196.655c-23.273-23.273-55.855-37.236-88.436-37.236h-60.509v256h60.509c32.582 0 65.164-13.964 88.436-37.236s37.236-55.855 37.236-88.436-13.964-69.818-37.236-93.091z" />
<glyph unicode="&#xe915;" glyph-name="22" d="M828.509 52.364h-186.182c107.055 102.4 265.309 288.582 265.309 512 0 107.055-41.891 204.8-116.364 279.273s-172.218 116.364-279.273 116.364c-107.055 0-204.8-41.891-279.273-116.364s-116.364-172.218-116.364-279.273c0-223.418 158.255-409.6 265.309-512h-186.182c-27.927 0-46.545-18.618-46.545-46.545s18.618-46.545 46.545-46.545h628.364c27.927 0 46.545 18.618 46.545 46.545s-18.618 46.545-41.891 46.545zM209.455 564.364c0 79.127 32.582 158.255 88.436 214.109s134.982 88.436 214.109 88.436 158.255-32.582 214.109-88.436c55.855-55.855 88.436-134.982 88.436-214.109 0-237.382-223.418-437.527-302.545-498.036-79.127 60.509-302.545 260.655-302.545 498.036zM698.182 564.364c0 102.4-83.782 186.182-186.182 186.182s-186.182-83.782-186.182-186.182 83.782-186.182 186.182-186.182c102.4 0 186.182 83.782 186.182 186.182zM418.909 564.364c0 51.2 41.891 93.091 93.091 93.091s93.091-41.891 93.091-93.091-41.891-93.091-93.091-93.091c-51.2 0-93.091 41.891-93.091 93.091z" />
<glyph unicode="&#xe916;" glyph-name="23" d="M929.903 960h-830.27c-55.351 0-99.632-44.281-99.632-99.632v-830.27c0-55.351 44.281-99.632 99.632-99.632h830.27c55.351 0 99.632 44.281 99.632 99.632v830.27c-5.535 55.351-49.816 99.632-99.632 99.632zM359.784 489.514c0 83.027 66.422 154.984 154.984 154.984s149.449-71.957 149.449-154.984-66.422-154.984-154.984-154.984-149.449 71.957-149.449 154.984zM708.497 157.405c38.746-27.676 66.422-66.422 88.562-110.703h-570.119c22.141 44.281 49.816 83.027 88.562 110.703 110.703 88.562 282.292 88.562 392.995 0zM913.297 849.297v-791.524c-27.676 71.957-71.957 138.378-132.843 188.195-27.676 22.141-55.351 38.746-88.562 55.351 49.816 49.816 83.027 116.238 83.027 193.73 0 143.914-116.238 265.686-265.686 265.686s-260.151-127.308-260.151-271.222c0-77.492 33.211-143.914 83.027-193.73-33.211-16.605-60.886-33.211-88.562-55.351-60.886-44.281-105.168-110.703-132.843-182.659v791.524h802.595z" />
<glyph unicode="&#xe917;" glyph-name="24" d="M512 374.044c-102.4 0-187.733 85.333-187.733 187.733s85.333 182.044 187.733 182.044 187.733-85.333 187.733-187.733-85.333-182.044-187.733-182.044zM512 658.489c-56.889 0-96.711-39.822-96.711-96.711s39.822-102.4 96.711-102.4 102.4 45.511 102.4 102.4-45.511 96.711-102.4 96.711zM512-52.622c-11.378 0-17.067 0-22.756 5.689-17.067 17.067-375.467 273.067-375.467 608.711 0 108.089 39.822 204.8 119.467 278.756 73.956 79.644 170.667 119.467 278.756 119.467s204.8-39.822 278.756-119.467c79.644-73.956 119.467-170.667 119.467-278.756 0-335.644-358.4-591.644-375.467-603.022-5.689-5.689-11.378-11.378-22.756-11.378zM512 874.667c-85.333 0-164.978-34.133-221.867-91.022s-91.022-136.533-91.022-221.867c0-244.622 233.244-455.111 312.889-517.689 79.644 62.578 312.889 267.378 312.889 517.689 0 85.333-34.133 164.978-91.022 221.867s-136.533 91.022-221.867 91.022z" />
<glyph unicode="&#xe918;" glyph-name="25" d="M512 960v0c36.571 0 73.143-36.571 73.143-73.143v-877.714c0-36.571-36.571-73.143-73.143-73.143v0c-36.571 0-73.143 36.571-73.143 73.143v877.714c0 36.571 36.571 73.143 73.143 73.143zM1024 448v0c0-36.571-36.571-73.143-73.143-73.143h-877.714c-36.571 0-73.143 36.571-73.143 73.143v0c0 36.571 36.571 73.143 73.143 73.143h877.714c36.571 0 73.143-36.571 73.143-73.143z" />
<glyph unicode="&#xe919;" glyph-name="26" d="M1042.618 466.618v0c0-37.236-37.236-74.473-74.473-74.473h-893.673c-37.236 0-74.473 37.236-74.473 74.473v0c0 37.236 37.236 74.473 74.473 74.473h893.673c37.236 0 74.473-37.236 74.473-74.473z" />
<glyph unicode="&#xe91a;" glyph-name="27" d="M1014.474-2.084l-228.614 233.377c66.679 76.205 104.781 176.223 104.781 285.767 0 242.902-200.037 442.94-442.94 442.94s-447.702-200.037-447.702-442.94 200.037-442.94 442.94-442.94c109.544 0 209.563 38.102 290.53 104.781l228.614-233.377c14.288-14.288 38.102-14.288 52.391 0s14.288 38.102 0 52.391zM71.442 517.060c0 204.8 166.698 371.498 371.498 371.498s371.498-166.698 371.498-371.498c0-204.8-166.698-371.498-371.498-371.498s-371.498 166.698-371.498 371.498z" />
<glyph unicode="&#xe91b;" glyph-name="28" d="M951.043 330.102l-148.055 36.879c-48.637 12.027-99.95-5.076-131.218-44.362l-154.734-193.487c-133.089 79.373-244.531 190.548-323.903 323.904l193.486 154.734c39.017 31.268 56.389 82.58 44.362 131.218l-37.148 148.054c-10.688 42.759-49.172 72.958-93.268 72.958h-204.175c-26.725 0-52.38-11.224-70.553-30.733s-27.259-45.432-25.656-71.889c17.104-238.382 119.726-462.869 288.892-632.036s393.654-271.79 632.038-288.893c2.138-0.266 4.541-0.266 6.682-0.266 53.181 0.266 96.207 43.292 96.207 96.476v203.907c0 44.365-30.198 82.847-72.957 93.537zM72.605 885.706c6.147 6.681 14.698 10.423 23.785 10.423h203.909c14.7 0 27.525-9.888 31.002-24.319l37.146-148.054c6.147-24.319-2.673-49.976-22.18-65.743l-185.202-148.321c-55.587 109.837-88.458 229.564-97.010 352.497-0.534 8.552 2.405 17.104 8.552 23.518zM959.862 32.658c0-9.088-3.743-17.638-10.424-23.785-6.413-5.88-14.966-9.088-23.785-8.553-122.665 8.553-242.391 41.423-352.228 97.011l148.321 185.201c15.767 19.51 41.423 28.060 65.741 22.182l148.055-37.148c14.164-3.474 24.32-16.302 24.32-31.002v-203.907zM544.069 736.848c141.64-0.267 256.289-114.917 256.556-256.557 0-17.638 14.433-32.069 32.069-32.069 17.638 0 32.072 14.431 32.072 32.069-0.269 176.916-143.78 320.428-320.696 320.696-17.638 0-32.069-14.431-32.069-32.069s14.164-32.070 32.069-32.070zM544.069 865.13c212.462-0.267 384.568-172.373 384.835-384.835 0-17.636 14.431-32.069 32.069-32.069s32.069 14.433 32.069 32.069c-0.266 247.738-201.236 448.707-448.973 448.974-17.638 0-32.069-14.431-32.069-32.069s14.164-32.070 32.069-32.070z" />
<glyph unicode="&#xe91c;" glyph-name="29" horiz-adv-x="1034" d="M488.727 949.657l-465.455-328.404c-12.929-10.343-23.273-28.444-23.273-46.545v-579.232c0-31.030 25.859-56.889 56.889-56.889h917.98c31.030 0 56.889 25.859 56.889 56.889v579.232c0 18.101-10.343 36.202-23.273 46.545l-462.869 328.404c-18.101 12.929-38.788 12.929-56.889 0zM318.061 308.364l-258.586-266.343v480.97l258.586-214.626zM362.020 266.99l131.879-111.192c12.929-10.343 31.030-10.343 43.96 0l131.879 111.192 261.172-271.515h-830.061l261.172 271.515zM718.869 308.364l256 217.212v-480.97l-256 263.758zM954.182 587.636l-424.081-359.434c-7.758-7.758-18.101-7.758-25.859 0l-424.081 359.434 418.909 294.788c10.343 7.758 25.859 7.758 38.788 0l416.323-294.788z" />
</font>
</defs>
</svg>
